<?xml version="1.0" encoding="utf-8"?>
<svg viewBox="0 0 40 40"
  xmlns="http://www.w3.org/2000/svg"
  xmlns:xlink="http://www.w3.org/1999/xlink">
  <style>:root>svg{display:none}:root>svg:target{display:block}</style>
  <svg fill="none" viewBox="0 0 17 21" id="bag"
    xmlns="http://www.w3.org/2000/svg">
    <path d="M14.75 4.25h-2.084A4.166 4.166 0 008.5.083 4.166 4.166 0 004.333 4.25H2.25A2.09 2.09 0 00.167 6.333v12.5a2.09 2.09 0 002.083 2.084h12.5a2.09 2.09 0 002.083-2.084v-12.5A2.09 2.09 0 0014.75 4.25zM8.5 2.167a2.09 2.09 0 012.083 2.083H6.416A2.09 2.09 0 018.5 2.167zm6.25 16.666H2.25v-12.5h2.083v2.084c0 .573.469 1.041 1.042 1.041.573 0 1.042-.468 1.042-1.041V6.333h4.166v2.084c0 .573.469 1.041 1.042 1.041.573 0 1.041-.468 1.041-1.041V6.333h2.084v12.5z" fill="#000"/>
  </svg>
  <svg fill="none" viewBox="0 0 21 21" id="cart"
    xmlns="http://www.w3.org/2000/svg">
    <path d="M15.198 11.542c.781 0 1.468-.427 1.823-1.073l3.729-6.76a1.038 1.038 0 00-.906-1.542H4.427L3.447.083H.043v2.084h2.083l3.75 7.906-1.406 2.542c-.76 1.395.24 3.093 1.822 3.093h12.5v-2.083h-12.5l1.146-2.083h7.76zM5.416 4.25h12.657l-2.875 5.208H7.885L5.417 4.25zm.875 12.5a2.08 2.08 0 00-2.072 2.083 2.08 2.08 0 002.072 2.084 2.09 2.09 0 002.084-2.084 2.09 2.09 0 00-2.083-2.083zm10.417 0a2.08 2.08 0 00-2.073 2.083 2.08 2.08 0 002.073 2.084 2.09 2.09 0 002.084-2.084 2.09 2.09 0 00-2.084-2.083z" fill="#000"/>
  </svg>
  <svg fill="none" viewBox="0 0 40 40" id="fb"
    xmlns="http://www.w3.org/2000/svg">
    <path fill-rule="evenodd" clip-rule="evenodd" d="M0 20.112C0 30.055 7.222 38.323 16.667 40V25.555h-5V20h5v-4.445c0-5 3.221-7.777 7.778-7.777 1.443 0 3 .222 4.443.444v5.111h-2.555c-2.445 0-3 1.222-3 2.779V20h5.334l-.889 5.555h-4.445V40C32.778 38.323 40 30.057 40 20.112 40 9.05 31 0 20 0S0 9.05 0 20.112z" fill="#E9E9E9"/>
  </svg>
  <svg fill="none" viewBox="0 0 40 40" id="inst"
    xmlns="http://www.w3.org/2000/svg">
    <path d="M20 40c-2.708 0-5.3-.527-7.773-1.582-2.474-1.055-4.603-2.474-6.387-4.258-1.784-1.784-3.203-3.913-4.258-6.387A19.62 19.62 0 010 20c0-2.708.527-5.3 1.582-7.773C2.637 9.753 4.056 7.624 5.84 5.84c1.784-1.784 3.913-3.203 6.387-4.258A19.62 19.62 0 0120 0c2.708 0 5.3.527 7.773 1.582 2.474 1.055 4.603 2.474 6.387 4.258 1.784 1.784 3.203 3.913 4.258 6.387A19.62 19.62 0 0140 20c0 2.708-.527 5.3-1.582 7.773-1.055 2.474-2.474 4.603-4.258 6.387-1.784 1.784-3.913 3.203-6.387 4.258A19.62 19.62 0 0120 40zm10-27.5c0-.677-.24-1.263-.723-1.758A2.383 2.383 0 0027.5 10h-15c-.677 0-1.263.247-1.758.742-.495.495-.742 1.08-.742 1.758V15h4.453c1.51-1.667 3.36-2.5 5.547-2.5 2.188 0 4.037.833 5.547 2.5H30v-2.5zM15 20c0 1.38.488 2.559 1.465 3.535C17.44 24.512 18.62 25 20 25c1.38 0 2.559-.488 3.535-1.465C24.512 22.56 25 21.38 25 20c0-1.38-.488-2.559-1.465-3.535C22.56 15.488 21.38 15 20 15c-1.38 0-2.559.488-3.535 1.465C15.488 17.44 15 18.62 15 20zm15-2.5h-2.969c.313.86.469 1.693.469 2.5 0 2.083-.73 3.854-2.188 5.313C23.855 26.77 22.084 27.5 20 27.5s-3.854-.73-5.313-2.188C13.23 23.855 12.5 22.084 12.5 20c0-.807.156-1.64.469-2.5H10v10c0 .703.24 1.296.723 1.777.481.482 1.074.723 1.777.723h15c.703 0 1.296-.24 1.777-.723.482-.481.723-1.074.723-1.777v-10z" fill="#E9E9E9"/>
  </svg>
  <svg fill="none" viewBox="0 0 25 25" id="location"
    xmlns="http://www.w3.org/2000/svg">
    <path d="M12.5 2.083a7.286 7.286 0 00-7.292 7.292c0 5.469 7.292 13.542 7.292 13.542s7.292-8.073 7.292-13.542A7.286 7.286 0 0012.5 2.083zM7.292 9.375A5.21 5.21 0 0112.5 4.167a5.21 5.21 0 015.209 5.208c0 3-3 7.49-5.209 10.292-2.166-2.782-5.208-7.323-5.208-10.292z" fill="#FFC300"/>
    <path d="M12.5 11.98a2.604 2.604 0 100-5.21 2.604 2.604 0 000 5.21z" fill="#FFC300"/>
  </svg>
  <svg fill="none" viewBox="0 0 30 30" id="minus"
    xmlns="http://www.w3.org/2000/svg">
    <circle cx="15" cy="15" r="14.5" fill="#fff" stroke="#E9E9E9"/>
    <path d="M22.47 14.07H7.77a1.05 1.05 0 100 2.1h14.7a1.05 1.05 0 000-2.1z" fill="#E9E9E9"/>
  </svg>
  <svg fill="none" viewBox="0 0 40 40" id="player"
    xmlns="http://www.w3.org/2000/svg">
    <path d="M20 0C8.96 0 0 8.96 0 20s8.96 20 20 20 20-8.96 20-20S31.04 0 20 0zm0 31.84c-6.54 0-11.84-5.3-11.84-11.84S13.46 8.16 20 8.16 31.84 13.46 31.84 20 26.54 31.84 20 31.84zm0-22.22C14.28 9.62 9.62 14.28 9.62 20c0 5.72 4.66 10.38 10.38 10.38 5.72 0 10.38-4.66 10.38-10.38 0-5.72-4.66-10.38-10.38-10.38zM16.14 25.9V14.1L26.36 20l-10.22 5.9z" fill="#E9E9E9"/>
  </svg>
  <svg fill="none" viewBox="0 0 15 19" id="rub"
    xmlns="http://www.w3.org/2000/svg">
    <path d="M9.35 12.071c3.325 0 5.65-2.389 5.65-5.823C15 2.814 12.675.5 9.35.5H2.969A.476.476 0 002.5.982v8.302H.469A.476.476 0 000 9.766v1.823c0 .266.21.482.469.482H2.5v1.286H.469A.476.476 0 000 13.84v1.607c0 .267.21.483.469.483H2.5v2.089c0 .266.21.482.469.482h2.287a.476.476 0 00.469-.482v-2.09h6.306a.476.476 0 00.469-.482V13.84a.476.476 0 00-.469-.482H5.725v-1.286H9.35zM5.725 3.262H8.8c1.825 0 2.925 1.17 2.925 2.986 0 1.842-1.1 3.036-2.975 3.036H5.725V3.262z" fill="#FFC300"/>
  </svg>
  <svg fill="none" viewBox="0 0 40 40" id="tel"
    xmlns="http://www.w3.org/2000/svg">
    <path d="M.008 40l2.704-9.936A19.908 19.908 0 010 20C0 8.954 8.954 0 20 0s20 8.954 20 20-8.954 20-20 20a19.908 19.908 0 01-10.06-2.71L.008 40zm12.774-29.384c-.258.016-.51.084-.742.2a2.587 2.587 0 00-.588.456c-.24.226-.376.422-.522.612A5.458 5.458 0 009.8 15.24c.004.98.26 1.934.66 2.826.818 1.804 2.164 3.714 3.942 5.484.428.426.846.854 1.296 1.252a18.896 18.896 0 007.68 4.092l1.138.174c.37.02.74-.008 1.112-.026a3.98 3.98 0 001.666-.462c.262-.135.517-.282.766-.44 0 0 .086-.056.25-.18.27-.2.436-.342.66-.576.166-.172.31-.374.42-.604.156-.326.312-.948.376-1.466.048-.396.034-.612.028-.746-.008-.214-.186-.436-.38-.53l-1.164-.522s-1.74-.758-2.802-1.242a.997.997 0 00-.354-.082.963.963 0 00-.756.254v-.004c-.01 0-.144.114-1.59 1.866a.7.7 0 01-.736.26 2.845 2.845 0 01-.382-.132c-.248-.104-.334-.144-.504-.218l-.01-.004a12.022 12.022 0 01-3.14-2c-.252-.22-.486-.46-.726-.692a12.593 12.593 0 01-2.04-2.536l-.118-.19a1.848 1.848 0 01-.204-.41c-.076-.294.122-.53.122-.53s.486-.532.712-.82c.188-.24.364-.488.526-.746.236-.38.31-.77.186-1.072-.56-1.368-1.14-2.73-1.736-4.082-.118-.268-.468-.46-.786-.498a8.877 8.877 0 00-.324-.032 6.752 6.752 0 00-.806.008v.002z" fill="#E9E9E9"/>
  </svg>
  <svg fill="none" viewBox="0 0 40 40" id="vk"
    xmlns="http://www.w3.org/2000/svg">
    <path d="M20 0C8.954 0 0 8.954 0 20s8.954 20 20 20 20-8.954 20-20S31.046 0 20 0zm7.692 22.565s1.768 1.745 2.204 2.556c.012.017.019.033.023.042.177.297.218.529.131.702-.146.287-.646.429-.817.441h-3.125c-.216 0-.67-.056-1.22-.435-.423-.296-.84-.781-1.246-1.254-.607-.704-1.132-1.313-1.66-1.313a.636.636 0 00-.199.031c-.4.13-.912.7-.912 2.221 0 .475-.375.748-.64.748H18.8c-.488 0-3.027-.17-5.277-2.544-2.754-2.906-5.233-8.735-5.254-8.79-.156-.376.166-.578.518-.578h3.157c.42 0 .558.256.654.483.112.265.525 1.317 1.202 2.5 1.098 1.93 1.77 2.712 2.31 2.712a.625.625 0 00.29-.075c.704-.391.573-2.902.542-3.422 0-.098-.002-1.123-.363-1.615-.258-.356-.698-.492-.964-.542.107-.149.25-.27.414-.352.483-.241 1.354-.277 2.219-.277h.481c.938.013 1.18.073 1.519.159.687.164.702.608.642 2.127a33.05 33.05 0 00-.038 1.493c0 .125-.006.259-.006.4-.021.773-.046 1.65.5 2.01a.45.45 0 00.237.07c.19 0 .76 0 2.307-2.653.476-.853.89-1.74 1.24-2.654.03-.054.122-.22.23-.285a.555.555 0 01.259-.06h3.71c.404 0 .681.06.733.216.092.248-.016 1.004-1.71 3.298l-.756.998c-1.536 2.012-1.536 2.115.096 3.642z" fill="#E9E9E9"/>
  </svg>
</svg>